Coordinates
nRows=8
nColumns=24

# SIMM Motion File Header:
name Coordinates
datacolumns 24
datarows 8
otherdata 1
range 0.79932999999999998000 0.80632999999999999000
endheader
time	pelvis_tx	pelvis_ty	pelvis_tz	pelvis_tilt	pelvis_list	pelvis_rotation	hip_flexion_r	hip_adduction_r	hip_rotation_r	knee_angle_r	ankle_angle_r	subtalar_angle_r	mtp_angle_r	hip_flexion_l	hip_adduction_l	hip_rotation_l	knee_angle_l	ankle_angle_l	subtalar_angle_l	mtp_angle_l	lumbar_extension	lumbar_bending	lumbar_rotation
      0.79932999999999998000	      0.84096719189635594000	      0.89877289319526465000	     -0.26039531072256444000	      3.37551352268410150000	     -0.53190864222305667000	     -5.27261054194102030000	     17.19803228761261600000	      0.12548608975157252000	      8.33941323410072850000	    -46.33817900406302200000	      6.77489198308759020000	      0.00000000000020633397	     -0.00000000000059301555	      2.21327997250406570000	      1.80891141013051440000	      3.02081510149743690000	    -17.56375645484032000000	     11.45205711541040100000	      0.00000000000001656643	      0.00000000000018601723	    -14.82997855442237900000	      2.04145888530023670000	     10.86910482776408700000
      0.80032999999999999000	      0.84208643627506230000	      0.89879292492899943000	     -0.26049418006132058000	      3.38471706375598070000	     -0.54744503033083691000	     -5.24918729597809010000	     17.27520203720776900000	      0.12789924726392288000	      8.35181589691120680000	    -46.09989901229546700000	      6.76684097651970620000	      0.00000000000020698616	     -0.00000000000059486883	      2.08981996746203790000	      1.80343182635765230000	      3.00193403620167890000	    -17.50612232327522500000	     11.50638507437638900000	      0.00000000000001685261	      0.00000000000018724225	    -14.86006085614045300000	      2.08333281399351210000	     10.83531137153454600000
      0.80132999999999999000	      0.84320677777383657000	      0.89880922034362642000	     -0.26059343111165506000	      3.39417613926317550000	     -0.56252086944799085000	     -5.22503167077950350000	     17.35033348993834700000	      0.12904680139484323000	      8.36360187901925830000	    -45.85825860411134200000	      6.75755839245130390000	      0.00000000000020764111	     -0.00000000000059674790	      1.96625271264587220000	      1.79831816516280530000	      2.98372971573583800000	    -17.44880917897502200000	     11.56008567124370100000	      0.00000000000001714479	      0.00000000000018844670	    -14.89019775646751000000	      2.12475251553943330000	     10.80178499571861500000
      0.80232999999999999000	      0.84432821639267874000	      0.89882177943914587000	     -0.26069306387356794000	      3.40389074920568560000	     -0.57713615957451891000	     -5.20014366634526050000	     17.42342664580434400000	      0.12892875214433500000	      8.37477118042488660000	    -45.61325777951063300000	      6.74704423088238680000	      0.00000000000020829882	     -0.00000000000059865277	      1.84257820805556880000	      1.79357042654597330000	      2.96620214009991350000	    -17.39181702193971900000	     11.61315890601233600000	      0.00000000000001744296	      0.00000000000018963057	    -14.92038925540354700000	      2.16571798993799950000	     10.76852570031629100000
      0.80332999999999999000	      0.84544965501152103000	      0.89883433853466532000	     -0.26079269663548083000	      3.41360535914819610000	     -0.59175144970104654000	     -5.17525566191101750000	     17.49651980167033800000	      0.12881070289382565000	      8.38594048183051300000	    -45.36825695490991700000	      6.73653006931346800000	      0.00000000000020895653	     -0.00000000000060055763	      1.71890370346526520000	      1.78882268792914180000	      2.94867456446398980000	    -17.33482486490441200000	     11.66623214078097000000	      0.00000000000001774114	      0.00000000000019081444	    -14.95058075433958300000	      2.20668346433656560000	     10.73526640491396700000
      0.80432999999999999000	      0.84657293845624415000	      0.89884093929689213000	     -0.26089283199197205000	      3.42367548134044640000	     -0.60562127944212607000	     -5.14926090002478620000	     17.56642322366719700000	      0.12672452572999879000	      8.39622257186944940000	    -45.11800822631838800000	      6.72415242841337600000	      0.00000000000020961525	     -0.00000000000060245098	      1.59507974519927550000	      1.78465262726092160000	      2.93223608340491020000	    -17.27831009858704200000	     11.71829155366102900000	      0.00000000000001803812	      0.00000000000019197202	    -14.98077681123719400000	      2.24690177383733360000	     10.70246568637857000000
      0.80532999999999999000	      0.84769694327666445000	      0.89884514520583025000	     -0.26099309624585026000	      3.43384553445193590000	     -0.61919451259433256000	     -5.12288186598807370000	     17.63515491581655000000	      0.12388689136564451000	      8.40621699571794960000	    -44.86575057348255100000	      6.70964542041333360000	      0.00000000000021026942	     -0.00000000000060431538	      1.47123885319975510000	      1.78070437623035360000	      2.91620515150244850000	    -17.22199714137805400000	     11.77006554214726500000	      0.00000000000001832935	      0.00000000000019312309	    -15.01092714152044700000	      2.28681305214955890000	     10.66989589006554700000
      0.80632999999999999000	      0.84882164360780499000	      0.89884704634152401000	     -0.26109348200711846000	      3.44410970236912340000	     -0.63248169312368374000	     -5.09613408106790630000	     17.70276216429455800000	      0.12032703964379993000	      8.41593564191395590000	    -44.61156391694439100000	      6.69308559828436240000	      0.00000000000021091978	     -0.00000000000060615546	      1.34738436998719590000	      1.77697009573411300000	      2.90056872542178020000	    -17.16588077549810300000	     11.82157864759641300000	      0.00000000000001861462	      0.00000000000019426924	    -15.04103060714604500000	      2.32642784878280560000	     10.63754824150496200000
